<svg xmlns="http://www.w3.org/2000/svg" xmlns:xlink="http://www.w3.org/1999/xlink" width="500" zoomAndPan="magnify" viewBox="0 0 375 374.999991" height="500" preserveAspectRatio="xMidYMid meet" version="1.0"><defs><clipPath id="aadae5173f"><path d="M 118.5 38 L 256.5 38 L 256.5 337 L 118.5 337 Z M 118.5 38 " clip-rule="nonzero"/></clipPath></defs><rect x="-37.5" width="450" fill="#ffffff" y="-37.499999" height="449.999989" fill-opacity="1"/><rect x="-37.5" width="450" fill="#120a27" y="-37.499999" height="449.999989" fill-opacity="1"/><g clip-path="url(#aadae5173f)"><path fill="#e2a9f1" d="M 187.050781 336.144531 C 184.535156 328.4375 179.589844 278.832031 179.222656 257.644531 L 179.039062 246.929688 L 182.015625 246.683594 C 183.894531 246.527344 184.992188 246.777344 184.992188 247.363281 C 184.992188 247.875 184.46875 248.089844 183.828125 247.84375 C 183.1875 247.597656 182.480469 247.6875 182.261719 248.042969 C 180.945312 250.171875 186.382812 323.988281 187.757812 322.613281 C 187.914062 322.457031 188.597656 315.722656 189.28125 307.648438 C 190.40625 294.332031 191.128906 283.113281 192.535156 257.050781 L 193.015625 248.121094 L 191.035156 248.121094 C 189.945312 248.121094 188.832031 247.765625 188.5625 247.328125 C 188.265625 246.84375 189.488281 246.535156 191.71875 246.535156 C 194.421875 246.535156 195.496094 246.882812 195.882812 247.890625 C 196.460938 249.402344 195.09375 273.878906 193.273438 294.554688 C 192.15625 307.28125 188.347656 336.257812 187.707031 336.9375 C 187.542969 337.109375 187.25 336.75 187.050781 336.144531 Z M 161.972656 240.558594 C 155.207031 240.003906 144.867188 239.15625 138.992188 238.675781 C 133.121094 238.195312 126.007812 237.800781 123.183594 237.800781 C 120.363281 237.800781 118.261719 237.589844 118.519531 237.332031 C 119.460938 236.390625 176.273438 233.480469 178.695312 234.246094 C 182.320312 235.398438 178.703125 236.21875 169.664062 236.296875 C 164.34375 236.34375 156.773438 236.625 152.84375 236.921875 L 145.703125 237.460938 L 152.449219 238.082031 C 169.039062 239.605469 191.246094 239.921875 208.40625 238.878906 C 218.011719 238.292969 226.585938 237.683594 227.457031 237.519531 C 229.113281 237.210938 227.523438 237.117188 207.21875 236.308594 C 199.433594 235.996094 195.058594 235.527344 195.3125 235.023438 C 195.785156 234.078125 206.515625 234.203125 233.015625 235.460938 C 252.734375 236.398438 262.601562 237.554688 252.460938 237.734375 C 249.625 237.785156 243.195312 238.179688 238.171875 238.613281 C 199.480469 241.933594 183.660156 242.339844 161.972656 240.558594 Z M 184.480469 235.605469 C 182.277344 234.195312 180.832031 220.628906 179.808594 191.765625 C 178.597656 157.640625 184.125 118.40625 193.898438 91.75 C 195.421875 87.605469 197.628906 81.175781 198.804688 77.464844 C 201.617188 68.601562 205.597656 60.652344 209.992188 55.128906 C 213.96875 50.132812 222.855469 43.050781 229.351562 39.703125 C 233.277344 37.675781 233.703125 37.605469 234.597656 38.824219 C 237.613281 42.953125 238.132812 63.042969 235.421875 70.699219 C 232.941406 77.683594 224.394531 88.277344 217.558594 92.824219 C 214.191406 95.066406 217.675781 94.332031 222.976562 91.683594 C 228.132812 89.109375 233.558594 83.394531 236.699219 77.246094 C 237.570312 75.535156 238.429688 74.277344 238.605469 74.457031 C 239.113281 74.964844 233.71875 100.910156 231.109375 110.515625 C 226.78125 126.421875 223.675781 132.625 215.480469 141.710938 C 211.796875 145.796875 211.726562 145.949219 214.242188 144.492188 C 218.050781 142.28125 225.363281 134.175781 228.921875 128.214844 L 231.976562 123.105469 L 231.554688 126.675781 C 228.714844 150.820312 226.3125 162.371094 222.605469 169.757812 C 219.417969 176.105469 214.285156 182.914062 208.566406 188.390625 C 202.78125 193.929688 203.363281 194.628906 210.789062 191.0625 C 215.289062 188.902344 218.972656 185.652344 223.023438 180.269531 L 224.804688 177.898438 L 224.269531 180.269531 C 223.15625 185.195312 219.359375 191.492188 214.757812 196.046875 L 209.996094 200.757812 L 215.820312 200.21875 C 220.347656 199.796875 221.574219 199.902344 221.320312 200.683594 C 221.144531 201.234375 218.164062 203.992188 214.703125 206.8125 C 204.976562 214.734375 198.621094 221.785156 194.558594 229.160156 C 192.542969 232.824219 190.546875 235.816406 190.125 235.816406 C 188.996094 235.816406 188.746094 204.910156 189.695312 183.03125 C 190.710938 159.71875 193 139.613281 196.519531 123.144531 C 200.648438 103.824219 205.597656 85.949219 209.605469 75.875 C 210.5625 73.476562 212.015625 69.8125 212.839844 67.738281 C 215.621094 60.734375 213.488281 63.910156 208.835938 73.691406 C 202.003906 88.054688 196.070312 107.027344 191.671875 128.566406 C 186.804688 152.398438 185.390625 169.988281 185.390625 206.648438 C 185.390625 222.910156 185.390625 236.210938 185.390625 236.203125 C 185.390625 236.195312 184.980469 235.929688 184.480469 235.605469 Z M 174.148438 222.824219 C 166.984375 217.632812 161.433594 208.546875 157.851562 196.128906 C 156.175781 190.320312 156.023438 188.261719 156.046875 171.921875 C 156.074219 156.097656 156.28125 153.199219 157.890625 146.519531 C 159.972656 137.878906 162.785156 128.808594 163.238281 129.265625 C 163.410156 129.433594 164.089844 132.675781 164.75 136.46875 C 166.066406 144.015625 170.023438 157.109375 172.402344 161.800781 C 173.230469 163.4375 173.582031 164.777344 173.179688 164.777344 C 171.921875 164.777344 167.027344 156.675781 165.144531 151.480469 C 164.15625 148.753906 163.113281 146.519531 162.820312 146.519531 C 161.925781 146.519531 160.328125 157.589844 159.832031 167.226562 C 158.746094 188.457031 164.554688 208.863281 175.117188 220.933594 C 179.191406 225.585938 178.859375 226.234375 174.148438 222.824219 Z M 166.894531 127.550781 C 166.371094 126.066406 165.941406 123.691406 165.941406 122.269531 C 165.941406 115.238281 178.136719 87.558594 186.261719 76.152344 C 190.648438 69.992188 195.933594 63.96875 196.953125 63.96875 C 197.242188 63.96875 196.8125 66.371094 196 69.308594 C 195.183594 72.246094 194.515625 75.660156 194.515625 76.898438 C 194.515625 78.195312 194.179688 78.9375 193.722656 78.652344 C 193.285156 78.382812 192.929688 77.425781 192.929688 76.527344 C 192.929688 73.773438 190.933594 76.148438 186.199219 84.523438 C 179.167969 96.960938 172.453125 113.355469 168.601562 127.46875 L 167.84375 130.25 Z M 166.894531 127.550781 " fill-opacity="1" fill-rule="nonzero"/></g></svg>